<svg width="180" height="76" viewBox="0 0 180 76" fill="none" xmlns="http://www.w3.org/2000/svg">
<path d="M73.7914 15.2481C73.7539 15.2105 73.7164 15.1729 73.7164 15.1352C72.6296 13.9685 71.243 12.3124 70.5684 10.5435C70.456 10.28 70.7183 10.0542 70.9806 10.1294L72.2174 10.2424H72.2923L73.7164 10.3929C73.7164 10.3929 69.8189 4.37092 69.2567 0.607178C69.1068 1.58575 68.7695 2.67724 68.2823 3.80636C68.2823 3.844 68.2823 3.844 68.2449 3.88163C66.8957 7.11845 64.797 10.3929 64.797 10.3929L67.4953 10.0918C67.7577 10.0165 67.9825 10.28 67.9076 10.5058C66.7083 13.705 63.148 16.6407 63.148 16.6407L66.5959 16.3396C66.8957 16.2643 67.158 16.5278 67.0456 16.8289C65.9963 19.3506 63.7851 21.7594 62.436 23.1144C61.5365 22.4745 60.5622 21.5336 59.9625 20.0657C59.8876 19.8775 60.075 19.6894 60.2623 19.727L63.223 19.8399C63.223 19.8399 60.1499 16.9418 59.213 15.1729C59.0631 14.9094 59.3629 14.6459 59.6252 14.6836L61.6865 14.7212C61.6865 14.7212 58.2386 11.8231 57.8264 8.66159C57.3766 11.7479 54.1162 14.8341 54.1162 14.8341L56.3648 14.6836C56.5896 14.6083 56.777 14.8341 56.7021 15.0223C55.6902 17.6569 52.767 19.9905 52.767 19.9905L55.6153 19.8023C55.8776 19.727 56.1024 19.9905 55.99 20.1786C55.6902 20.8561 55.3154 21.4959 54.9032 22.1734C58.9132 23.6413 62.7733 25.2221 66.371 26.8028L71.955 17.8828C71.7677 17.5064 71.5803 17.1676 71.4304 16.7913C71.3179 16.5278 71.5803 16.2643 71.8801 16.302L72.8545 16.3773H72.9669L75.2905 16.5654C75.3279 16.6784 74.6534 16.1514 73.7914 15.2481Z" fill="#88A680"/>
<path d="M74.5034 19.2001C74.5034 19.2377 74.5409 19.2753 74.5784 19.313L69.0318 28.1954C68.9944 28.1954 68.9569 28.1578 68.9194 28.1578L74.5034 19.2001Z" fill="#545759"/>
<path d="M85.4091 21.082L88.2573 21.2702C88.2573 21.2702 85.3341 18.9367 84.3223 16.3021C84.2473 16.1139 84.4347 15.9257 84.6596 15.9633L86.8707 16.1139C86.8707 16.1139 86.5334 15.8128 86.0837 15.2482C86.0462 15.2106 85.9712 15.1353 85.9338 15.0977C84.9594 13.9309 83.4978 11.9361 83.198 9.94135C82.8982 12.0114 81.3242 13.9685 80.2748 15.0977L80.1249 15.2482C79.6752 15.7375 79.3379 16.001 79.3379 16.001L81.3991 15.9633C81.6989 15.8881 81.9612 16.1892 81.8488 16.4526C80.9494 18.2216 77.8388 21.1197 77.8388 21.1197L80.7995 21.0067C81.0243 20.9691 81.1742 21.1573 81.0993 21.3455C80.4997 22.8133 79.4878 23.7543 78.6258 24.3941C77.4641 23.265 75.7401 21.3455 74.6158 19.3131L69.0693 28.1955C71.093 29.0988 73.0418 30.0021 74.9157 30.943C75.4778 30.6043 76.0399 30.2279 76.6396 29.8892C78.326 28.9106 80.1624 27.8944 81.9987 26.9911C83.3104 26.3136 86.4959 24.6952 86.7957 24.507C86.1211 23.5661 85.484 22.5499 85.0343 21.5337C84.9219 21.2702 85.1468 21.0444 85.4091 21.082Z" fill="#47763B"/>
<path d="M66.1462 33.8411L63.935 30.3032C62.9981 29.8516 62.0612 29.3999 61.0868 28.9859C55.915 26.6524 50.2186 24.3565 44.1474 22.3617C42.8732 21.9477 41.6365 21.5713 40.3248 21.1573C40.025 21.082 39.7626 21.1949 39.6127 21.3831C39.5378 21.4584 39.5003 21.5713 39.5003 21.6842C39.5003 21.7595 39.5003 21.8348 39.5003 21.9101C39.6877 23.4156 40.025 24.8834 40.4747 26.3136C40.737 27.1417 41.4116 27.7815 42.2736 28.0073C42.7233 28.1202 43.2105 28.2331 43.6977 28.3461C43.8101 28.3837 43.96 28.4213 44.0724 28.459C44.7095 28.6472 45.3841 28.7977 46.0212 29.0235C53.8538 31.357 62.5859 35.4219 69.3317 38.8845L66.1462 33.8411Z" fill="#D4D5D6"/>
<path d="M68.5072 31.8839C68.4697 31.8839 68.4323 31.8463 68.3948 31.8463L70.6059 35.3842L73.7539 40.3899C73.7914 40.3899 73.8289 40.4276 73.8664 40.4276C77.3517 42.2342 80.2749 43.8526 82.2611 44.9817C83.0481 45.4334 84.0225 45.5086 84.8845 45.1699C85.9713 44.7183 87.0206 44.229 88.0325 43.702L88.857 43.1375C84.1349 40.0888 77.1268 35.9487 68.5072 31.8839Z" fill="#D4D5D6"/>
<path d="M99.8376 23.6414C99.6127 26.1254 99.0506 28.5342 98.2261 30.7925C98.1511 31.0183 97.9263 31.2065 97.6639 31.2441C97.0268 31.357 96.3523 31.5076 95.7152 31.6205C95.4153 31.6958 95.1155 31.771 94.8157 31.8087C89.7939 32.9754 85.0718 34.5938 83.0481 35.309C81.4366 34.4057 79.7501 33.5024 77.9513 32.5614C78.9631 31.884 80.1249 31.2065 81.3242 30.5666C83.198 29.5504 85.2217 28.5342 87.208 27.5933C89.3816 26.5771 91.5553 25.6361 93.4666 24.8081C95.6402 23.9048 97.4391 23.1521 98.6383 22.7004C99.238 22.4746 99.8751 22.9639 99.8376 23.6414Z" fill="#989A9C"/>
<path d="M97.1018 33.9916C96.015 36.137 94.6658 38.1318 93.0918 39.9007C92.4172 40.6535 91.3304 40.804 90.4684 40.2771C89.0069 39.3738 87.3954 38.3952 85.634 37.379C88.1824 36.4757 94.1786 34.782 97.1018 33.9916Z" fill="#989A9C"/>
<path d="M129.444 52.1328H128.994V72.5323H129.444V52.1328Z" fill="white"/>
<path d="M85.4841 52.9609V53.9395H86.1586V54.7298H85.4841V56.7623C85.4841 56.9128 85.5215 57.0257 85.559 57.101C85.634 57.1763 85.7089 57.2139 85.8963 57.2139C86.0087 57.2139 86.1212 57.2139 86.1961 57.1763V58.0043C85.9712 58.0796 85.7839 58.1172 85.559 58.1172C84.8095 58.1172 84.4347 57.7408 84.3972 56.9881V54.8051H83.7976V54.0147H84.3972V53.0362H85.4841V52.9609Z" fill="white"/>
<path d="M86.7208 55.9342C86.7208 55.5202 86.7957 55.1815 86.9456 54.8804C87.0956 54.5793 87.3204 54.3158 87.6202 54.1653C87.92 53.9771 88.2573 53.9018 88.6321 53.9018C89.1942 53.9018 89.6065 54.0523 89.9438 54.3911C90.2811 54.7298 90.4684 55.1815 90.5059 55.746V56.0095C90.5059 56.6117 90.3185 57.1386 89.9813 57.515C89.644 57.8914 89.1568 58.0796 88.5946 58.0796C88.0325 58.0796 87.5453 57.8914 87.208 57.515C86.8707 57.1386 86.6833 56.6493 86.6833 55.9719V55.9342H86.7208ZM87.7701 56.0095C87.7701 56.3859 87.8451 56.687 87.995 56.8751C88.1449 57.0633 88.3323 57.1762 88.5946 57.1762C88.857 57.1762 89.0443 57.0633 89.1942 56.8751C89.3441 56.687 89.4191 56.3482 89.4191 55.8966C89.4191 55.5202 89.3441 55.2191 89.1942 55.0309C89.0443 54.8051 88.857 54.7298 88.5946 54.7298C88.3323 54.7298 88.1449 54.8427 87.995 55.0309C87.8451 55.2567 87.7701 55.5955 87.7701 56.0095Z" fill="white"/>
<path d="M93.8038 57.5902C93.5415 57.9289 93.1667 58.0795 92.717 58.0795C92.2673 58.0795 91.9675 57.9666 91.7426 57.7031C91.5178 57.4396 91.4053 57.1009 91.4053 56.6116V53.977H92.4922V56.574C92.4922 56.988 92.6795 57.2138 93.0543 57.2138C93.4291 57.2138 93.6539 57.1009 93.8038 56.8374V53.977H94.8907V58.0042H93.8788L93.8038 57.5902Z" fill="white"/>
<path d="M98.1137 54.9556C97.9638 54.918 97.8513 54.918 97.7389 54.918C97.3267 54.918 97.0643 55.0685 96.9519 55.332V57.9666H95.8651V53.9394H96.8769L96.9144 54.4287C97.1393 54.0523 97.4391 53.8641 97.8139 53.8641C97.9263 53.8641 98.0387 53.8641 98.1511 53.9018L98.1137 54.9556Z" fill="white"/>
<path d="M98.8632 52.9232C98.8632 52.7727 98.9007 52.6221 99.0131 52.5092C99.1255 52.3963 99.2754 52.3586 99.4628 52.3586C99.6502 52.3586 99.8001 52.3963 99.9125 52.5092C100.025 52.6221 100.062 52.735 100.062 52.9232C100.062 53.0738 100.025 53.2243 99.9125 53.3372C99.8001 53.4501 99.6502 53.4878 99.4628 53.4878C99.2754 53.4878 99.1255 53.4501 99.0131 53.3372C98.9007 53.2243 98.8632 53.0738 98.8632 52.9232ZM99.9875 58.0043H98.9007V53.9771H99.9875V58.0043Z" fill="white"/>
<path d="M103.285 56.8751C103.285 56.7622 103.21 56.6493 103.098 56.574C102.986 56.4988 102.761 56.4235 102.461 56.3858C101.487 56.1977 101.037 55.7836 101.037 55.1438C101.037 54.7674 101.187 54.504 101.487 54.2405C101.786 54.0147 102.161 53.8641 102.648 53.8641C103.173 53.8641 103.585 53.977 103.885 54.2405C104.185 54.4663 104.335 54.8051 104.335 55.1814H103.248C103.248 55.0309 103.21 54.8803 103.098 54.8051C102.986 54.6922 102.836 54.6545 102.648 54.6545C102.461 54.6545 102.311 54.6922 102.236 54.7674C102.124 54.8427 102.086 54.9556 102.086 55.0685C102.086 55.1815 102.161 55.2944 102.274 55.3696C102.386 55.4449 102.573 55.5202 102.836 55.5578C103.098 55.5955 103.323 55.6707 103.51 55.746C104.072 55.9718 104.372 56.3106 104.372 56.8375C104.372 57.2139 104.222 57.515 103.885 57.7408C103.585 57.9666 103.173 58.0795 102.648 58.0795C102.311 58.0795 102.011 58.0043 101.749 57.8913C101.487 57.7784 101.299 57.5902 101.149 57.4021C100.999 57.1762 100.924 56.9504 100.924 56.7246H101.936C101.936 56.9128 102.011 57.0633 102.161 57.1762C102.274 57.2891 102.461 57.3268 102.686 57.3268C102.873 57.3268 103.061 57.2891 103.136 57.2139C103.21 57.101 103.285 56.988 103.285 56.8751Z" fill="white"/>
<path d="M106.246 53.9394L106.284 54.3911C106.583 54.0523 106.958 53.8641 107.445 53.8641C107.97 53.8641 108.307 54.0523 108.495 54.4663C108.794 54.0523 109.169 53.8641 109.694 53.8641C110.144 53.8641 110.443 53.977 110.668 54.2405C110.893 54.504 111.006 54.8803 111.006 55.4073V58.0043H109.919V55.4449C109.919 55.2191 109.881 55.0309 109.769 54.9556C109.694 54.8427 109.507 54.8051 109.282 54.8051C108.944 54.8051 108.72 54.9556 108.607 55.2567V58.0419H107.52V55.4825C107.52 55.2567 107.483 55.0685 107.37 54.9933C107.295 54.8803 107.108 54.8427 106.921 54.8427C106.621 54.8427 106.396 54.9556 106.246 55.2191V58.0795H105.159V54.0523H106.246V53.9394Z" fill="white"/>
<path d="M86.0462 65.7199C85.4466 65.7199 84.9594 65.5318 84.6221 65.1554C84.2473 64.779 84.0599 64.2897 84.0599 63.6875V63.5746C84.0599 63.1606 84.1349 62.8219 84.2848 62.4831C84.4347 62.1444 84.6596 61.9186 84.9594 61.7304C85.2592 61.5422 85.559 61.4669 85.9338 61.4669C86.4959 61.4669 86.9082 61.6551 87.2454 61.9938C87.5453 62.3326 87.7326 62.8219 87.7326 63.4617V63.9134H85.1842C85.2217 64.1768 85.3341 64.4026 85.484 64.5532C85.6714 64.7037 85.8963 64.779 86.1586 64.779C86.5709 64.779 86.9081 64.6285 87.133 64.3274L87.6577 64.9296C87.5078 65.1554 87.2829 65.3436 87.0206 65.4565C86.6833 65.6447 86.3835 65.7199 86.0462 65.7199ZM85.9338 62.3702C85.7089 62.3702 85.559 62.4455 85.4091 62.596C85.2592 62.7466 85.1842 62.9348 85.1468 63.2359H86.6458V63.1606C86.6458 62.9348 86.5709 62.7466 86.4584 62.596C86.346 62.4455 86.1586 62.3702 85.9338 62.3702Z" fill="white"/>
<path d="M90.0562 62.7842L90.7308 61.5798H91.8926L90.7308 63.5746L91.93 65.6446H90.7683L90.0562 64.3649L89.3441 65.6446H88.1824L89.3816 63.5746L88.2573 61.5798H89.4191L90.0562 62.7842Z" fill="white"/>
<path d="M94.2161 64.8166C94.4035 64.8166 94.5908 64.779 94.7033 64.6661C94.8157 64.5532 94.8907 64.4026 94.8907 64.2144H95.9025C95.9025 64.4779 95.8276 64.7414 95.6777 64.9672C95.5278 65.193 95.3404 65.3812 95.078 65.4941C94.8157 65.607 94.5534 65.6823 94.2536 65.6823C93.6914 65.6823 93.2417 65.4941 92.9044 65.1177C92.5671 64.7414 92.4172 64.2521 92.4172 63.6123V63.537C92.4172 62.8971 92.5671 62.4079 92.9044 62.0315C93.2417 61.6551 93.6914 61.4669 94.2536 61.4669C94.7408 61.4669 95.153 61.6175 95.4528 61.8809C95.7526 62.182 95.9025 62.5584 95.9025 63.0477H94.8907C94.8907 62.8219 94.8157 62.6713 94.7033 62.5208C94.5908 62.4078 94.4035 62.3326 94.2161 62.3326C93.9537 62.3326 93.7664 62.4079 93.6539 62.596C93.5415 62.7842 93.4665 63.0853 93.4665 63.4993V63.6123C93.4665 64.0263 93.5415 64.3274 93.6539 64.5155C93.7664 64.7037 93.9537 64.8166 94.2161 64.8166Z" fill="white"/>
<path d="M98.5634 65.7199C97.9637 65.7199 97.4766 65.5318 97.1393 65.1554C96.7645 64.779 96.5771 64.2897 96.5771 63.6875V63.5746C96.5771 63.1606 96.6521 62.8219 96.802 62.4831C96.9519 62.1444 97.1767 61.9186 97.4766 61.7304C97.7764 61.5422 98.0762 61.4669 98.4509 61.4669C99.0131 61.4669 99.4253 61.6551 99.7626 61.9938C100.062 62.3326 100.25 62.8219 100.25 63.4617V63.9134H97.6639C97.7014 64.1768 97.8138 64.4026 97.9637 64.5532C98.1511 64.7037 98.376 64.779 98.6383 64.779C99.0506 64.779 99.3879 64.6285 99.6127 64.3274L100.137 64.9296C99.9875 65.1554 99.7626 65.3436 99.5003 65.4565C99.238 65.6447 98.9007 65.7199 98.5634 65.7199ZM98.4509 62.3702C98.2261 62.3702 98.0762 62.4455 97.9263 62.596C97.7764 62.7466 97.7014 62.9348 97.6639 63.2359H99.163V63.1606C99.163 62.9348 99.088 62.7466 98.9756 62.596C98.8632 62.4455 98.6758 62.3702 98.4509 62.3702Z" fill="white"/>
<path d="M102.199 65.6447H101.112V59.9238H102.199V65.6447Z" fill="white"/>
<path d="M104.41 65.6447H103.323V59.9238H104.41V65.6447Z" fill="white"/>
<path d="M107.37 65.7199C106.771 65.7199 106.284 65.5318 105.946 65.1554C105.572 64.779 105.384 64.2897 105.384 63.6875V63.5746C105.384 63.1606 105.459 62.8219 105.609 62.4831C105.759 62.1444 105.984 61.9186 106.284 61.7304C106.583 61.5422 106.883 61.4669 107.258 61.4669C107.82 61.4669 108.232 61.6551 108.57 61.9938C108.869 62.3326 109.057 62.8219 109.057 63.4617V63.9134H106.508C106.546 64.1768 106.658 64.4026 106.808 64.5532C106.996 64.7037 107.22 64.779 107.483 64.779C107.895 64.779 108.232 64.6285 108.457 64.3274L108.982 64.9296C108.832 65.1554 108.607 65.3436 108.345 65.4565C108.007 65.6447 107.708 65.7199 107.37 65.7199ZM107.258 62.3702C107.033 62.3702 106.883 62.4455 106.733 62.596C106.583 62.7466 106.508 62.9348 106.471 63.2359H107.97V63.1606C107.97 62.9348 107.895 62.7466 107.783 62.596C107.67 62.4455 107.483 62.3702 107.258 62.3702Z" fill="white"/>
<path d="M110.856 61.5797L110.893 62.0314C111.193 61.655 111.568 61.5045 112.055 61.5045C112.467 61.5045 112.804 61.6174 112.992 61.8808C113.217 62.1443 113.292 62.5207 113.329 63.01V65.6069H112.242V63.01C112.242 62.7841 112.205 62.5959 112.092 62.5207C111.98 62.4078 111.83 62.3701 111.605 62.3701C111.305 62.3701 111.081 62.483 110.931 62.7465V65.6069H109.844V61.5797H110.856Z" fill="white"/>
<path d="M116.027 64.8166C116.215 64.8166 116.402 64.779 116.515 64.6661C116.627 64.5532 116.702 64.4026 116.702 64.2144H117.714C117.714 64.4779 117.639 64.7414 117.489 64.9672C117.339 65.193 117.152 65.3812 116.889 65.4941C116.627 65.607 116.365 65.6823 116.065 65.6823C115.503 65.6823 115.053 65.4941 114.716 65.1177C114.378 64.7414 114.229 64.2521 114.229 63.6123V63.537C114.229 62.8971 114.378 62.4079 114.716 62.0315C115.053 61.6551 115.503 61.4669 116.065 61.4669C116.552 61.4669 116.964 61.6175 117.264 61.8809C117.564 62.182 117.714 62.5584 117.714 63.0477H116.702C116.702 62.8219 116.627 62.6713 116.515 62.5208C116.402 62.4078 116.215 62.3326 116.027 62.3326C115.765 62.3326 115.578 62.4079 115.465 62.596C115.353 62.7842 115.278 63.0853 115.278 63.4993V63.6123C115.278 64.0263 115.353 64.3274 115.465 64.5155C115.578 64.7414 115.765 64.8166 116.027 64.8166Z" fill="white"/>
<path d="M120.375 65.7199C119.775 65.7199 119.288 65.5318 118.951 65.1554C118.576 64.779 118.388 64.2897 118.388 63.6875V63.5746C118.388 63.1606 118.463 62.8219 118.613 62.4831C118.763 62.1444 118.988 61.9186 119.288 61.7304C119.588 61.5422 119.888 61.4669 120.262 61.4669C120.824 61.4669 121.237 61.6551 121.574 61.9938C121.874 62.3326 122.061 62.8219 122.061 63.4617V63.9134H119.513C119.55 64.1768 119.663 64.4026 119.813 64.5532C120 64.7037 120.225 64.779 120.487 64.779C120.899 64.779 121.237 64.6285 121.462 64.3274L121.986 64.9296C121.836 65.1554 121.611 65.3436 121.349 65.4565C121.012 65.6447 120.712 65.7199 120.375 65.7199ZM120.262 62.3702C120.037 62.3702 119.888 62.4455 119.738 62.596C119.588 62.7466 119.513 62.9348 119.475 63.2359H120.974V63.1606C120.974 62.9348 120.899 62.7466 120.787 62.596C120.675 62.4455 120.487 62.3702 120.262 62.3702Z" fill="white"/>
<path d="M85.1842 69.2202L85.2217 69.6719C85.5215 69.2955 85.8963 69.145 86.3835 69.145C86.7957 69.145 87.133 69.2579 87.3204 69.5213C87.5453 69.7848 87.6202 70.1612 87.6577 70.6505V73.2474H86.5709V70.6505C86.5709 70.4246 86.5334 70.2364 86.421 70.1612C86.3085 70.0483 86.1586 70.0106 85.9338 70.0106C85.634 70.0106 85.4091 70.1235 85.2592 70.387V73.2474H84.1724V69.2202H85.1842Z" fill="white"/>
<path d="M88.5197 71.215C88.5197 70.801 88.5946 70.4623 88.7445 70.1612C88.8944 69.8601 89.1193 69.5966 89.4191 69.4461C89.7189 69.2579 90.0562 69.1826 90.431 69.1826C90.9931 69.1826 91.4054 69.3332 91.7426 69.6719C92.0799 70.0106 92.2673 70.4623 92.3048 71.0268V71.2903C92.3048 71.8925 92.1174 72.4194 91.7801 72.7958C91.4428 73.1722 90.9556 73.3604 90.3935 73.3604C89.8313 73.3604 89.3441 73.1722 89.0068 72.7958C88.6696 72.4194 88.4822 71.9301 88.4822 71.2527V71.215H88.5197ZM89.569 71.2903C89.569 71.6667 89.644 71.9678 89.7939 72.156C89.9438 72.3442 90.1311 72.4571 90.3935 72.4571C90.6558 72.4571 90.8432 72.3442 90.9931 72.156C91.143 71.9678 91.218 71.629 91.218 71.1774C91.218 70.801 91.143 70.4999 90.9931 70.3117C90.8432 70.0859 90.6558 70.0106 90.3935 70.0106C90.1311 70.0106 89.9438 70.1236 89.7939 70.3117C89.644 70.4999 89.569 70.8387 89.569 71.2903Z" fill="white"/>
<path d="M95.4528 70.2364C95.3029 70.1988 95.1905 70.1988 95.0781 70.1988C94.6658 70.1988 94.4035 70.3494 94.291 70.6128V73.2474H93.2042V69.2202H94.2161L94.2536 69.7095C94.4784 69.3331 94.7782 69.145 95.153 69.145C95.2654 69.145 95.3779 69.145 95.4903 69.1826L95.4528 70.2364Z" fill="white"/>
<path d="M97.6639 68.2417V69.2203H98.3385V70.0107H97.6639V72.0431C97.6639 72.1936 97.7014 72.3065 97.7389 72.3818C97.8138 72.4571 97.8888 72.4947 98.0762 72.4947C98.1886 72.4947 98.301 72.4947 98.376 72.4571V73.2851C98.1511 73.3604 97.9637 73.398 97.7389 73.398C96.9894 73.398 96.6146 73.0217 96.5771 72.2689V70.0859H95.9775V69.2955H96.5771V68.317H97.6639V68.2417Z" fill="white"/>
<path d="M100.212 69.6718C100.512 69.3331 100.849 69.1449 101.299 69.1449C102.161 69.1449 102.611 69.6718 102.611 70.6881V73.285H101.524V70.7257C101.524 70.4999 101.487 70.3117 101.374 70.1988C101.262 70.0859 101.112 70.0482 100.887 70.0482C100.587 70.0482 100.325 70.1611 100.212 70.4246V73.285H99.1255V67.5641H100.212V69.6718Z" fill="white"/>
<path d="M137.314 52.5092V53.4878H137.989V54.2782H137.314V56.3106C137.314 56.4611 137.352 56.5741 137.389 56.6493C137.464 56.7246 137.539 56.7622 137.726 56.7622C137.839 56.7622 137.951 56.7622 138.026 56.7246V57.5526C137.801 57.6279 137.614 57.6655 137.389 57.6655C136.64 57.6655 136.265 57.2892 136.227 56.5364V54.3534H135.628V53.5631H136.227V52.5845H137.314V52.5092Z" fill="white"/>
<path d="M138.551 55.4826C138.551 55.0685 138.626 54.7298 138.776 54.4287C138.926 54.1276 139.151 53.8641 139.45 53.7136C139.75 53.5254 140.087 53.4501 140.462 53.4501C141.024 53.4501 141.437 53.6007 141.774 53.9394C142.111 54.2782 142.299 54.7298 142.336 55.2944V55.5578C142.336 56.16 142.149 56.6869 141.811 57.0633C141.474 57.4397 140.987 57.6279 140.425 57.6279C139.863 57.6279 139.375 57.4397 139.038 57.0633C138.701 56.6869 138.513 56.1977 138.513 55.5202V55.4826H138.551ZM139.638 55.5578C139.638 55.9342 139.713 56.2353 139.863 56.4235C140.012 56.6117 140.2 56.7246 140.462 56.7246C140.725 56.7246 140.912 56.6117 141.062 56.4235C141.212 56.2353 141.287 55.8966 141.287 55.4449C141.287 55.0685 141.212 54.7674 141.062 54.5793C140.912 54.3534 140.725 54.2782 140.462 54.2782C140.2 54.2782 140.012 54.3911 139.863 54.5793C139.713 54.7674 139.638 55.1438 139.638 55.5578Z" fill="white"/>
<path d="M145.634 57.1385C145.372 57.4773 144.997 57.6278 144.547 57.6278C144.097 57.6278 143.798 57.5149 143.573 57.2514C143.348 56.988 143.235 56.6492 143.235 56.1599V53.5253H144.322V56.1223C144.322 56.5363 144.51 56.7622 144.884 56.7622C145.259 56.7622 145.484 56.6492 145.634 56.3858V53.5253H146.721V57.5525H145.709L145.634 57.1385Z" fill="white"/>
<path d="M149.981 54.504C149.831 54.4663 149.719 54.4663 149.606 54.4663C149.194 54.4663 148.932 54.6169 148.819 54.8803V57.515H147.733V53.4877H148.745L148.782 53.977C149.007 53.6007 149.307 53.4125 149.681 53.4125C149.794 53.4125 149.906 53.4125 150.019 53.4501L149.981 54.504Z" fill="white"/>
<path d="M150.693 52.4715C150.693 52.321 150.731 52.1704 150.843 52.0575C150.956 51.9446 151.106 51.907 151.293 51.907C151.48 51.907 151.63 51.9446 151.743 52.0575C151.855 52.1704 151.893 52.2834 151.893 52.4715C151.893 52.6221 151.855 52.7726 151.743 52.8856C151.63 52.9985 151.48 53.0361 151.293 53.0361C151.106 53.0361 150.956 52.9985 150.843 52.8856C150.768 52.7726 150.693 52.6221 150.693 52.4715ZM151.855 57.5526H150.768V53.5254H151.855V57.5526Z" fill="white"/>
<path d="M155.116 56.4235C155.116 56.3106 155.041 56.1976 154.928 56.1224C154.816 56.0471 154.591 55.9718 154.291 55.9342C153.317 55.746 152.867 55.332 152.867 54.6922C152.867 54.3158 153.017 54.0523 153.317 53.7888C153.616 53.563 153.991 53.4125 154.478 53.4125C155.003 53.4125 155.415 53.5254 155.715 53.7888C156.015 54.0147 156.165 54.3534 156.165 54.7298H155.078C155.078 54.5792 155.041 54.4287 154.928 54.3534C154.816 54.2405 154.666 54.2029 154.478 54.2029C154.291 54.2029 154.141 54.2405 154.066 54.3158C153.954 54.3911 153.916 54.504 153.916 54.6169C153.916 54.7298 153.954 54.8427 154.104 54.918C154.216 54.9932 154.403 55.0685 154.666 55.1062C154.928 55.1438 155.153 55.2191 155.34 55.2943C155.903 55.5202 156.202 55.8589 156.202 56.3858C156.202 56.7622 156.052 57.0633 155.715 57.2891C155.415 57.515 155.003 57.6279 154.478 57.6279C154.141 57.6279 153.841 57.5526 153.579 57.4397C153.317 57.3268 153.129 57.1386 152.979 56.9504C152.829 56.7246 152.755 56.4987 152.755 56.2729H153.766C153.766 56.4611 153.841 56.6117 153.991 56.7246C154.141 56.8375 154.291 56.8751 154.516 56.8751C154.703 56.8751 154.891 56.8375 154.966 56.7622C155.078 56.6493 155.116 56.574 155.116 56.4235Z" fill="white"/>
<path d="M158.076 53.5254L158.114 53.9771C158.413 53.6383 158.788 53.4501 159.275 53.4501C159.8 53.4501 160.137 53.6383 160.325 54.0523C160.625 53.6383 160.999 53.4501 161.524 53.4501C161.974 53.4501 162.274 53.563 162.498 53.8265C162.723 54.09 162.836 54.4663 162.836 54.9933V57.5903H161.749V55.0309C161.749 54.8051 161.711 54.6169 161.599 54.5416C161.524 54.4287 161.337 54.3911 161.112 54.3911C160.775 54.3911 160.55 54.5416 160.437 54.8427V57.6279H159.35V55.0685C159.35 54.8427 159.313 54.6545 159.2 54.5793C159.126 54.4663 158.938 54.4287 158.713 54.4287C158.413 54.4287 158.189 54.5416 158.039 54.8051V57.6655H156.952V53.6383H158.076V53.5254Z" fill="white"/>
<path d="M165.721 57.6278C165.122 57.6278 164.635 57.4397 164.297 57.0633C163.923 56.6869 163.735 56.1976 163.735 55.5954V55.4825C163.735 55.0685 163.81 54.7298 163.96 54.391C164.11 54.0523 164.335 53.8265 164.635 53.6383C164.934 53.4501 165.234 53.3748 165.609 53.3748C166.171 53.3748 166.583 53.563 166.921 53.9017C167.22 54.2405 167.408 54.7298 167.408 55.3696V55.8212H164.859C164.897 56.0847 165.009 56.3105 165.159 56.4611C165.347 56.6116 165.572 56.6869 165.834 56.6869C166.246 56.6869 166.583 56.5364 166.808 56.2353L167.333 56.8375C167.183 57.0633 166.958 57.2515 166.696 57.3644C166.359 57.5526 166.059 57.6278 165.721 57.6278ZM165.609 54.3158C165.384 54.3158 165.234 54.391 165.084 54.5416C164.934 54.6921 164.859 54.8803 164.822 55.1814H166.321V55.1061C166.321 54.8803 166.246 54.6921 166.134 54.5416C166.021 54.391 165.834 54.3158 165.609 54.3158Z" fill="white"/>
<path d="M135.89 63.1229C135.89 62.4831 136.04 61.9938 136.302 61.6174C136.602 61.241 136.977 61.0529 137.464 61.0529C137.839 61.0529 138.176 61.2034 138.438 61.5045V59.4344H139.525V65.1553H138.513L138.476 64.7413C138.214 65.0801 137.876 65.2306 137.427 65.2306C136.939 65.2306 136.565 65.0424 136.302 64.6661C136.002 64.3273 135.89 63.8004 135.89 63.1229ZM136.939 63.1982C136.939 63.5746 137.014 63.8757 137.127 64.0639C137.239 64.252 137.464 64.365 137.689 64.365C138.026 64.365 138.251 64.2144 138.401 63.9509V62.3702C138.251 62.0691 138.026 61.9562 137.689 61.9562C137.202 61.9562 136.939 62.3702 136.939 63.1982Z" fill="white"/>
<path d="M140.837 61.4292L140.35 61.1281C140.575 60.7894 140.687 60.4507 140.687 60.0743V59.4344H141.549V59.999C141.549 60.2248 141.474 60.4507 141.362 60.7141C141.212 61.0152 141.062 61.241 140.837 61.4292Z" fill="white"/>
<path d="M143.985 65.2683C143.385 65.2683 142.898 65.0802 142.561 64.7038C142.186 64.3274 141.999 63.8381 141.999 63.2359V63.123C141.999 62.709 142.074 62.3703 142.224 62.0315C142.374 61.6928 142.598 61.467 142.898 61.2788C143.198 61.0906 143.498 61.0153 143.873 61.0153C144.435 61.0153 144.847 61.2035 145.184 61.5422C145.484 61.881 145.671 62.3703 145.671 63.0101V63.4618H143.123C143.161 63.7252 143.273 63.951 143.423 64.1016C143.61 64.2521 143.835 64.3274 144.097 64.3274C144.51 64.3274 144.847 64.1769 145.072 63.8758L145.597 64.478C145.447 64.7038 145.222 64.892 144.959 65.0049C144.622 65.1931 144.322 65.2683 143.985 65.2683ZM143.835 61.9186C143.61 61.9186 143.46 61.9939 143.31 62.1444C143.161 62.295 143.086 62.4832 143.048 62.7843H144.547V62.709C144.547 62.4832 144.472 62.295 144.36 62.1444C144.247 61.9939 144.06 61.9186 143.835 61.9186Z" fill="white"/>
<path d="M147.995 62.3326L148.67 61.1282H149.831L148.67 63.123L149.869 65.193H148.707L147.995 63.9133L147.283 65.193H146.121L147.32 63.123L146.196 61.1282H147.358L147.995 62.3326Z" fill="white"/>
<path d="M152.155 64.4026C152.342 64.4026 152.53 64.3649 152.642 64.252C152.755 64.1391 152.829 63.9886 152.829 63.8004H153.841C153.841 64.0639 153.766 64.3273 153.616 64.5531C153.467 64.779 153.279 64.9671 153.017 65.0801C152.755 65.193 152.492 65.2682 152.192 65.2682C151.63 65.2682 151.18 65.0801 150.843 64.7037C150.506 64.3273 150.356 63.838 150.356 63.1982V63.1229C150.356 62.4831 150.506 61.9938 150.843 61.6174C151.18 61.241 151.63 61.0529 152.192 61.0529C152.68 61.0529 153.092 61.2034 153.392 61.4669C153.691 61.768 153.841 62.1443 153.841 62.6336H152.829C152.829 62.4078 152.755 62.2573 152.642 62.1067C152.53 61.9938 152.342 61.9185 152.155 61.9185C151.893 61.9185 151.705 61.9938 151.593 62.182C151.48 62.3702 151.405 62.6713 151.405 63.0853V63.1982C151.405 63.6122 151.48 63.9133 151.593 64.1015C151.705 64.2897 151.893 64.4026 152.155 64.4026Z" fill="white"/>
<path d="M156.502 65.2683C155.903 65.2683 155.415 65.0802 155.078 64.7038C154.703 64.3274 154.516 63.8381 154.516 63.2359V63.123C154.516 62.709 154.591 62.3703 154.741 62.0315C154.891 61.6928 155.116 61.467 155.415 61.2788C155.715 61.0906 156.015 61.0153 156.39 61.0153C156.952 61.0153 157.364 61.2035 157.701 61.5422C158.001 61.881 158.189 62.3703 158.189 63.0101V63.4618H155.64C155.678 63.7252 155.79 63.951 155.94 64.1016C156.127 64.2521 156.352 64.3274 156.615 64.3274C157.027 64.3274 157.364 64.1769 157.589 63.8758L158.114 64.478C157.964 64.7038 157.739 64.892 157.477 65.0049C157.139 65.1931 156.839 65.2683 156.502 65.2683ZM156.39 61.9186C156.165 61.9186 156.015 61.9939 155.865 62.1444C155.715 62.295 155.64 62.4832 155.603 62.7843H157.102V62.709C157.102 62.4832 157.027 62.295 156.914 62.1444C156.802 61.9939 156.615 61.9186 156.39 61.9186Z" fill="white"/>
<path d="M160.1 65.193H159.013V59.4721H160.1V65.193Z" fill="white"/>
<path d="M162.349 65.193H161.262V59.4721H162.349V65.193Z" fill="white"/>
<path d="M165.309 65.2683C164.71 65.2683 164.222 65.0802 163.885 64.7038C163.51 64.3274 163.323 63.8381 163.323 63.2359V63.123C163.323 62.709 163.398 62.3703 163.548 62.0315C163.698 61.6928 163.923 61.467 164.222 61.2788C164.522 61.0906 164.822 61.0153 165.197 61.0153C165.759 61.0153 166.171 61.2035 166.508 61.5422C166.808 61.881 166.996 62.3703 166.996 63.0101V63.4618H164.447C164.485 63.7252 164.597 63.951 164.747 64.1016C164.934 64.2521 165.159 64.3274 165.422 64.3274C165.834 64.3274 166.171 64.1769 166.396 63.8758L166.921 64.478C166.771 64.7038 166.546 64.892 166.284 65.0049C165.946 65.1931 165.646 65.2683 165.309 65.2683ZM165.159 61.9186C164.934 61.9186 164.784 61.9939 164.635 62.1444C164.485 62.295 164.41 62.4832 164.372 62.7843H165.871V62.709C165.871 62.4832 165.796 62.295 165.684 62.1444C165.571 61.9939 165.422 61.9186 165.159 61.9186Z" fill="white"/>
<path d="M168.757 61.1281L168.794 61.5798C169.094 61.2034 169.469 61.0529 169.956 61.0529C170.369 61.0529 170.706 61.1658 170.893 61.4292C171.118 61.6927 171.193 62.0691 171.23 62.5584V65.1553H170.144V62.5584C170.144 62.3325 170.106 62.1443 169.994 62.0691C169.881 61.9562 169.731 61.9185 169.507 61.9185C169.207 61.9185 168.982 62.0314 168.832 62.2949V65.1553H167.745V61.1281H168.757Z" fill="white"/>
<path d="M173.929 64.4026C174.116 64.4026 174.304 64.3649 174.416 64.252C174.528 64.1391 174.603 63.9886 174.603 63.8004H175.615C175.615 64.0639 175.54 64.3273 175.39 64.5531C175.24 64.779 175.053 64.9671 174.791 65.0801C174.528 65.193 174.266 65.2682 173.966 65.2682C173.404 65.2682 172.954 65.0801 172.617 64.7037C172.28 64.3273 172.13 63.838 172.13 63.1982V63.1229C172.13 62.4831 172.28 61.9938 172.617 61.6174C172.954 61.241 173.404 61.0529 173.966 61.0529C174.453 61.0529 174.866 61.2034 175.166 61.4669C175.465 61.7303 175.615 62.1443 175.615 62.6336H174.603C174.603 62.4078 174.528 62.2573 174.416 62.1067C174.304 61.9938 174.116 61.9185 173.929 61.9185C173.666 61.9185 173.479 61.9938 173.367 62.182C173.254 62.3702 173.179 62.6713 173.179 63.0853V63.1982C173.179 63.6122 173.254 63.9133 173.367 64.1015C173.479 64.2897 173.666 64.4026 173.929 64.4026Z" fill="white"/>
<path d="M178.314 65.2683C177.714 65.2683 177.227 65.0802 176.889 64.7038C176.515 64.3274 176.327 63.8381 176.327 63.2359V63.123C176.327 62.709 176.402 62.3703 176.552 62.0315C176.702 61.6928 176.927 61.467 177.227 61.2788C177.527 61.0906 177.826 61.0153 178.201 61.0153C178.763 61.0153 179.176 61.2035 179.513 61.5422C179.813 61.881 180 62.3703 180 63.0101V63.4618H177.452C177.489 63.7252 177.602 63.951 177.751 64.1016C177.901 64.2521 178.164 64.3274 178.426 64.3274C178.838 64.3274 179.176 64.1769 179.4 63.8758L179.925 64.478C179.775 64.7038 179.55 64.892 179.288 65.0049C178.951 65.1931 178.613 65.2683 178.314 65.2683ZM178.164 61.9186C177.939 61.9186 177.789 61.9939 177.639 62.1444C177.489 62.295 177.414 62.4832 177.377 62.7843H178.876V62.709C178.876 62.4832 178.801 62.295 178.688 62.1444C178.576 61.9939 178.388 61.9186 178.164 61.9186Z" fill="white"/>
<path d="M137.014 68.7686L137.052 69.2202C137.352 68.8438 137.726 68.6933 138.214 68.6933C138.626 68.6933 138.963 68.8062 139.151 69.0697C139.375 69.3331 139.45 69.7095 139.488 70.1988V72.7958H138.401V70.1988C138.401 69.973 138.363 69.7848 138.251 69.7095C138.139 69.5966 137.989 69.559 137.764 69.559C137.464 69.559 137.239 69.6719 137.089 69.9353V72.7958H136.002V68.7686H137.014Z" fill="white"/>
<path d="M140.35 70.7634C140.35 70.3494 140.425 70.0106 140.575 69.7095C140.725 69.4084 140.949 69.145 141.249 68.9944C141.549 68.8062 141.886 68.731 142.261 68.731C142.823 68.731 143.235 68.8815 143.573 69.2202C143.91 69.559 144.097 70.0106 144.135 70.5752V70.8387C144.135 71.4409 143.948 71.9678 143.61 72.3442C143.273 72.7205 142.786 72.9087 142.224 72.9087C141.661 72.9087 141.174 72.7205 140.837 72.3442C140.5 71.9678 140.312 71.4785 140.312 70.801V70.7634H140.35ZM141.437 70.8387C141.437 71.215 141.512 71.5161 141.661 71.7043C141.811 71.8925 141.999 72.0054 142.261 72.0054C142.523 72.0054 142.711 71.8925 142.861 71.7043C143.011 71.5161 143.086 71.1774 143.086 70.7257C143.086 70.3494 143.011 70.0483 142.861 69.8601C142.711 69.6343 142.523 69.559 142.261 69.559C141.999 69.559 141.811 69.6719 141.661 69.8601C141.512 70.0859 141.437 70.387 141.437 70.8387Z" fill="white"/>
<path d="M147.32 69.7848C147.171 69.7471 147.058 69.7471 146.946 69.7471C146.533 69.7471 146.271 69.8977 146.159 70.1612V72.7958H145.072V68.7686H146.084L146.121 69.2579C146.346 68.8815 146.646 68.6933 147.021 68.6933C147.133 68.6933 147.245 68.6933 147.358 68.7309L147.32 69.7848Z" fill="white"/>
<path d="M147.808 70.7633C147.808 70.1235 147.958 69.6342 148.22 69.2578C148.52 68.8814 148.894 68.6932 149.382 68.6932C149.756 68.6932 150.094 68.8438 150.356 69.1449V67.0748H151.443V72.7957H150.468L150.431 72.3817C150.169 72.7204 149.831 72.871 149.382 72.871C148.894 72.871 148.52 72.6828 148.257 72.3064C147.92 71.9677 147.808 71.4408 147.808 70.7633ZM148.857 70.8386C148.857 71.2149 148.932 71.516 149.044 71.7042C149.157 71.8924 149.382 72.0053 149.606 72.0053C149.944 72.0053 150.169 71.8548 150.319 71.5913V70.0105C150.169 69.7094 149.944 69.5965 149.606 69.5965C149.119 69.5589 148.857 70.0105 148.857 70.8386Z" fill="white"/>
<path d="M10.9432 54.8427V63.8757C10.9432 64.7037 10.9432 65.4565 10.9806 66.0963V66.2092C11.0181 66.8867 11.1305 67.4889 11.3554 68.0158C11.5803 68.5428 11.9176 68.9568 12.4797 69.2955C13.0044 69.5966 13.7914 69.7472 14.8032 69.7472C15.2155 69.7472 15.7776 69.6719 16.4522 69.4837C17.1268 69.2955 17.614 69.145 17.8763 68.9944H18.5509V74.6024C17.6889 74.8282 16.7895 75.0164 15.8151 75.1293C14.8407 75.2422 13.679 75.3175 12.2923 75.3175C9.06933 75.3175 6.70831 74.64 5.24672 73.3227C3.78513 72.0054 3.0356 69.8224 3.0356 66.8114V54.918H0V49.3853H3.0356V39.2232L10.9432 42.3847V49.3853H18.5509V54.918H10.9432V54.8427Z" fill="white"/>
<path d="M41.8614 51.0791C39.9501 49.3854 37.2143 48.5198 33.7289 48.5198C30.7683 48.5198 28.2574 49.122 26.1961 50.2887C26.1961 50.2887 26.1961 50.2887 26.1587 50.2887C25.2592 50.8157 24.4347 51.4555 23.7227 52.2082C23.2355 52.7352 22.7858 53.2621 22.3735 53.8643C20.9869 55.9343 20.2748 58.4184 20.1624 61.3918V61.4294C20.1624 61.6552 20.1249 61.9187 20.1249 62.1445C20.1249 63.4995 20.2748 64.7791 20.5372 65.9459C21.0993 68.3923 22.2236 70.3871 23.985 71.9303C24.5847 72.4572 25.2592 72.9465 25.9713 73.3605C28.2948 74.7154 31.3304 75.3929 34.9657 75.3929C36.2773 75.3929 37.4016 75.3176 38.3011 75.2047C39.2005 75.0542 40.1 74.9036 40.9619 74.6778C41.4491 74.5649 41.8988 74.4143 42.2736 74.3014C42.6109 74.1885 42.9107 74.0756 43.173 74.0003C43.6977 73.7745 44.2973 73.5487 44.9344 73.2852V66.7363H44.11C43.7727 66.9998 43.3229 67.3008 42.7608 67.6396C42.1986 67.9783 41.599 68.2794 40.9619 68.5805C40.4372 68.8063 39.8751 69.0322 39.3129 69.1827C39.0506 69.258 38.7883 69.3333 38.5259 69.4085C37.6265 69.6344 36.7271 69.7096 35.8276 69.7096C34.7783 69.7096 33.7664 69.5967 32.867 69.4085C31.9675 69.2204 31.1805 68.8816 30.506 68.3923C30.0937 68.1289 29.7564 67.7901 29.4566 67.4138C29.2317 67.1503 29.0069 66.8492 28.857 66.5105C28.782 66.3599 28.6696 66.1717 28.6321 65.9835C28.3698 65.3813 28.2199 64.6662 28.1449 63.8382C28.1075 63.7253 28.1075 63.65 28.1075 63.5371H45.4216V60.6767C45.4216 56.7624 44.4472 53.7514 42.4985 51.6437C42.2736 51.4555 42.0487 51.2673 41.8614 51.0791ZM28.0325 58.7572C28.1449 57.1764 28.5946 55.9343 29.4941 54.9934C30.356 54.0901 31.5553 53.6008 33.0918 53.6008C34.5909 53.6008 35.7152 54.0525 36.4647 54.9181C37.2143 55.7838 37.589 57.0635 37.6265 58.7572H28.0325Z" fill="white"/>
<path d="M70.9431 51.0414C69.594 49.3853 67.6077 48.5949 65.0218 48.5949C63.5228 48.5949 62.1736 48.896 60.9369 49.5359C59.7002 50.1381 58.4634 51.0037 57.1518 52.1329V48.5573H49.2442V57.2892V74.7906H49.3566H57.1518V66.134V56.7623C57.9013 56.2353 58.6133 55.859 59.2879 55.5955C59.9625 55.332 60.5996 55.2191 61.2367 55.2191C62.0987 55.2191 62.7732 55.332 63.2979 55.5955C63.8226 55.859 64.1974 56.273 64.4597 56.8375C64.6845 57.3268 64.8345 58.0796 64.9094 59.0958C64.9844 60.112 65.0218 61.1282 65.0218 62.1821V66.134V74.7906H72.9669V66.134V58.2301C73.0044 55.0686 72.3298 52.6598 70.9431 51.0414Z" fill="white"/>
</svg>
